/* XPM */
static char *e5d6a7bac31046aa8064b996e741f72432v606RxgoF1B0Pt[] = {
/* columns rows colors chars-per-pixel */
"64 64 39 1 ",
"  c #FFFFFF",
". c #070001",
"X c #1E0100",
"o c #1F0100",
"O c #1F0804",
"+ c #220705",
"@ c #200B05",
"# c #240806",
"$ c #2A0805",
"% c #3D0F09",
"& c #3B1609",
"* c #3D1408",
"= c #3D140A",
"- c #3F170A",
"; c #3C170E",
": c #3D1A08",
"> c #401108",
", c #5F2818",
"< c #471330",
"1 c #6C2C20",
"2 c #641C46",
"3 c #AB0015",
"4 c #AC0016",
"5 c #8E3E2D",
"6 c #8D3F31",
"7 c #87422E",
"8 c #85472F",
"9 c #8B462A",
"0 c #8A412D",
"q c #8B412F",
"w c #854533",
"e c #864234",
"r c #8A4130",
"t c #894132",
"y c #864A32",
"u c #854A34",
"i c #854E49",
"p c #AD665F",
"a c #E88880",
/* pixels */
"                                                                ",
"                                                                ",
"                                                                ",
"                                                                ",
"                                                                ",
"                                                                ",
"                                                                ",
"                                                                ",
"                                                                ",
"                                                                ",
"                                                                ",
"                                                                ",
"                                                                ",
"                                                                ",
"                                                                ",
"                                                                ",
"                                                                ",
"                                                                ",
"                                                                ",
"                                                                ",
"                                                                ",
"             ----        pp-                                    ",
"              2e7--------p-              -pp                    ",
"               2euuuuuu---@               -p---------           ",
"                2uu8u------@              @----r0562            ",
"                 22--ye0--2@   .      .  @@r----r02             ",
"                 --2wry--2y@@  ..    ..  @@r-9r--2              ",
"                   2ryr-2ry2@  .,.  .o. @@rr--rr2-              ",
"                    2y--0r02@@ .o,...o. @@0r7-rr22-             ",
"                    29-0r707@@@.o,,,,,%@@@rr0--2                ",
"                     -7777772@O+%,,,,,%@@2rrrr-2                ",
"                     -2227772@O$%,3-,4%O@2r5rr-2                ",
"                         22722O$%%%.,.%O222222--                ",
"                           222OO$$%%%%%O222   2-                ",
"                           222O-OaOOOOa22      -                ",
"                            22O>1p7711p2                        ",
"                            2OO%177711O                         ",
"                            2O#%%1771O                          ",
"                            2&;##%%7O                           ",
"                            2&:<<#%%                            ",
"                            &i<2<##                             ",
"                            pi<22pi                             ",
"                            p<222p                              ",
"                              222                               ",
"                              22                                ",
"                              2                                 ",
"                                                                ",
"                                                                ",
"                                                                ",
"                                                                ",
"                                                                ",
"                                                                ",
"                                                                ",
"                                                                ",
"                                                                ",
"                                                                ",
"                                                                ",
"                                                                ",
"                                                                ",
"                                                                ",
"                                                                ",
"                                                                ",
"                                                                ",
"                                                                "
};
