/* XPM */
static char * bat1_xpm[] = {
"64 64 34 1",
" 	c #63C446",
".	c #3F170A",
"+	c #AD665F",
"@	c #641C46",
"#	c #864234",
"$	c #87422E",
"%	c #854A34",
"&	c #200B05",
"*	c #85472F",
"=	c #8A4130",
"-	c #8A412D",
";	c #8E3E2D",
">	c #8D3F31",
",	c #864A32",
"'	c #070001",
")	c #854533",
"!	c #8B462A",
"~	c #5F2818",
"{	c #1F0100",
"]	c #3D0F09",
"^	c #1F0804",
"/	c #220705",
"(	c #2A0805",
"_	c #AB0015",
":	c #AC0016",
"<	c #E88880",
"[	c #401108",
"}	c #6C2C20",
"|	c #240806",
"1	c #3B1609",
"2	c #3C170E",
"3	c #3D1A08",
"4	c #471330",
"5	c #854E49",
"                                                                ",
"                                                                ",
"                                                                ",
"                                                                ",
"                                                                ",
"                                                                ",
"                                                                ",
"            ....        ++.                                     ",
"             @#$........+.              .++                     ",
"              @#%%%%%%...&               .+.........            ",
"               @%%*%......&              &....=-;>@             ",
"                @@..,#-..@&   '      '  &&=....=-@              ",
"                ..@)=,..@,&&  ''    ''  &&=.!=..@               ",
"                  @=,=.@=,@&  '~'  '{' &&==..==@.               ",
"                   @,..-=-@&& '{~'''{' &&-=$.==@@.              ",
"                   @!.-=$-$&&&'{~~~~~]&&&==-..@                 ",
"                    .$$$$$$@&^/]~~~~~]&&@====.@                 ",
"                    .@@@$$$@&^(]~_.~:]^&@=;==.@                 ",
"                        @@$@@^(]]]'~']^@@@@@@..                 ",
"                          @@@^^((]]]]]^@@@   @.                 ",
"                          @@@^.^<^^^^<@@      .                 ",
"                           @@^[}+$$}}+@                         ",
"                           @^^]}$$$}}^                          ",
"                           @^|]]}$$}^                           ",
"                           @12||]]$^                            ",
"                           @1344|]]                             ",
"                           154@4||                              ",
"                           +54@@+5                              ",
"                           +4@@@+                               ",
"                             @@@                                ",
"                             @@                                 ",
"                             @                                  ",
"                                                                ",
"                                                                ",
"                                                                ",
"                                                                ",
"                                                                ",
"                                                                ",
"                                                                ",
"                                                                ",
"                                                                ",
"                                                                ",
"                                                                ",
"                                                                ",
"                                                                ",
"                                                                ",
"                                                                ",
"                                                                ",
"                                                                ",
"                                                                ",
"                                                                ",
"                                                                ",
"                                                                ",
"                                                                ",
"                                                                ",
"                                                                ",
"                                                                ",
"                                                                ",
"                                                                ",
"                                                                ",
"                                                                ",
"                                                                ",
"                                                                ",
"                                                                "};
