/* XPM */
static char * collectable_xpm[] = {
"64 64 12 1",
" 	c #63C446",
".	c #0F0D09",
"+	c #17130D",
"@	c #887456",
"#	c #3C301E",
"$	c #2D2314",
"%	c #E8D0AA",
"&	c #68553A",
"*	c #63C346",
"=	c #62C345",
"-	c #62C145",
";	c #62C346",
"                          ..........                            ",
"                          ..........                            ",
"                        ++@@######@@++                          ",
"                        ++@@######@@++                          ",
"                      ..@@$$######$$@@..                        ",
"                      ..@@$$######$$@@..                        ",
"                      ..##$$######$$##..                        ",
"                      ..##$$######$$##..                        ",
"                      ..##$$######$$##..                        ",
"                      ..##$$######$$##..                        ",
"                  ......##$$######$$##......                    ",
"                  ......##$$######$$##......                    ",
"                ++@@##..##$$######$$##..##@@++                  ",
"                ++@@##..##$$######$$##..##@@++                  ",
"              ..@@$$##..##$$######$$##..##$$@@..                ",
"              ..@@$$##..##$$######$$##..##$$@@..                ",
"              ..##$$##..##$$######$$##..##$$##..                ",
"              ..##$$##..##$$######$$##..##$$##..                ",
"          ......##$$##..##$$######$$##..##$$##......            ",
"          ......##$$##..##$$######$$##..##$$##......            ",
"        ++@@##..##$$##..##$$######$$##..##$$##..##@@++          ",
"        ++@@##..##$$##..##$$######$$##..##$$##..##@@++          ",
"      ..@@$$##..##$$##..##$$######$$##..##$$##..##$$@@..        ",
"      ..@@$$##..##$$##..##$$######$$##..##$$##..##$$@@..        ",
"      ..##$$##..##$$##..##$$######$$##..##$$##..##$$##..        ",
"      ..##$$##..##$$##..##$$######$$##..##$$##..##$$##..        ",
"      ..##$$##..##$$##..##$$######$$##..##$$##..##$$##..        ",
"      ..##$$##..##$$##..##$$######$$##..##$$##..##$$##..        ",
"      ..##$$##..##$$##..$$$$######$$$$..##$$##..##$$##..        ",
"      ..##$$##..##$$##..$$$$######$$$$..##$$##..##$$##..        ",
"      ..##$$##..##$$##..$$++......++$$..##$$##..##$$##..        ",
"      ..##$$##..##$$##..$$++......++$$..##$$##..##$$##..        ",
"      ..##$$##..##$$##..++@@%%%%%%@@++..##$$##..##$$##..        ",
"      ..##$$##..##$$##..++@@%%%%%%@@++..##$$##..##$$##..        ",
"      ..##$$##..##$$##..@@%%@@@@@@%%@@..##$$##..##$$##..        ",
"      ..##$$##..##$$##..@@%%@@@@@@%%@@..##$$##..##$$##..        ",
"      ..##$$##..$$$$##..@@%%&&&&&&%%@@..##$$$$..##$$##..        ",
"      ..##$$##..$$$$##..@@%%&&&&&&%%@@..##$$$$..##$$##..        ",
"      ..##$$##..$$$$####++@@%%%%%%@@++####$$$$..##$$##..        ",
"      ..##$$##..$$$$####++@@%%%%%%@@++####$$$$..##$$##..        ",
"      ..##$$##..$$++......++......++......++$$..##$$##..        ",
"      ..##$$##..$$++......++......++......++$$..##$$##..        ",
"      ..##$$##..++@@%%%%%%@@++..++@@%%%%%%@@++..##$$##..        ",
"      ..##$$##..++@@%%%%%%@@++..++@@%%%%%%@@++..##$$##..        ",
"      ..$$$$##..@@%%@@@@@@%%@@..@@%%@@@@@@%%@@..##$$$$..        ",
"      ..$$$$##..@@%%@@@@@@%%@@..@@%%@@@@@@%%@@..##$$$$..        ",
"      ..$$$$##..@@%%&&&&&&%%@@..@@%%&&&&&&%%@@..##$$$$..        ",
"      ..$$$$##..@@%%&&&&&&%%@@..@@%%&&&&&&%%@@..##$$$$..        ",
"      ..$$++....++@@%%%%%%@@++..++@@%%%%%%@@++....++$$..        ",
"      ..$$++....++@@%%%%%%@@++..++@@%%%%%%@@++....++$$..        ",
"      ..++@@%%%%%%++......++%%%%%%++......++%%%%%%@@++..        ",
"      ..++@@%%%%%%++......++%%%%%%++......++%%%%%%@@++..        ",
"      ..@@%%@@@@@@%%@@..@@%%@@@@@@%%@@..@@%%@@@@@@%%@@..        ",
"      ..@@%%@@@@@@%%@@..@@%%@@@@@@%%@@..@@%%@@@@@@%%@@..        ",
"      ..@@%%&&&&&&%%@@..@@%%&&&&&&%%@@..@@%%&&&&&&%%@@..        ",
"      ..@@%%&&&&&&%%@@..@@%%&&&&&&%%@@..@@%%&&&&&&%%@@..        ",
"      **++@@%%%%%%@@++  ++@@%%%%%%@@++  ++@@%%%%%%@@++          ",
"      **++@@%%%%%%@@++  ++@@%%%%%%@@++  ++@@%%%%%%@@++          ",
"        **++......++    ==++......++--  --++......++;;          ",
"        **++......++    ==++......++--  --++......++;;          ",
"          ;;;;  ;;    **                          ;;            ",
"          ;;;;  ;;    **                          ;;            ",
"                                                                ",
"                                                                "};
