/* XPM */
static char * dead2_xpm[] = {
"64 64 44 1",
" 	c #63C446",
".	c #070001",
"+	c #5F2818",
"@	c #1F0100",
"#	c #1E0100",
"$	c #3D0F09",
"%	c #200B05",
"&	c #1F0804",
"*	c #2A0805",
"=	c #AB0015",
"-	c #3D1408",
";	c #AC0016",
">	c #3F170A",
",	c #AD665F",
"'	c #641C46",
")	c #471330",
"!	c #3D140A",
"~	c #E88880",
"{	c #8A412D",
"]	c #8A4130",
"^	c #864234",
"/	c #8B412F",
"(	c #401108",
"_	c #87422E",
":	c #6C2C20",
"<	c #240806",
"[	c #8C4631",
"}	c #864A32",
"|	c #8D432F",
"1	c #85472F",
"2	c #875035",
"3	c #894132",
"4	c #8D3F31",
"5	c #3B1609",
"6	c #3D1A08",
"7	c #230B06",
"8	c #240A06",
"9	c #854E49",
"0	c #3D1608",
"a	c #8E3E2D",
"b	c #FFFFFF",
"c	c #181425",
"d	c #4A8E45",
"e	c #C0CBDC",
"                                                                ",
"                                                                ",
"                                                                ",
"                                                                ",
"                                                                ",
"                                                                ",
"                                                                ",
"                                                                ",
"                                                                ",
"                                                                ",
"                                                                ",
"                               .      .                         ",
"                               ..    ..                         ",
"                               .+.  .@.                         ",
"                               .#+...@.                         ",
"                               .#+++++$.                        ",
"                               .$+++++$.                        ",
"                            %&%*$+=-+;$&&%                      ",
"                  %    %%%%%%&&*$$$.+.$&%%%%%  %                ",
"                 >,%%%%%%%%%%%&&**$$$$$&%%%%%%%,%               ",
"                 >,,%%%'''')))&!&~&&&&~&))'''%,,>>              ",
"                 >>>>''{{]^/')&(!,__::,<'^[{{]>>>>              ",
"                 >>}>>']_{]/^'&((___::<)'[[|||>>>>>             ",
"                >>>}}>>']^^1]'<&((__:<)''^^|_>>2>3>             ",
"                >}>}}]>>']^^'&&&((<_<))''^^|>^^1>1>             ",
"                >}>>}}}}>''''&<&&&&<))   '^>^^^1>1>             ",
"                >}4>}'''   ''56))78)      >'''^>'^>             ",
"                >}}>>'      59''))0           '>'1>             ",
"                >a}'>       ,''')9             ''^>             ",
"                 >''          ''                '>              ",
"                 >'           '                 >               ",
"                  >                                             ",
"                                                                ",
"                                                                ",
"                                                                ",
"                                                                ",
"                                                                ",
"                                                                ",
"                                                                ",
"                                                                ",
"                                                                ",
"                            bbbbbbbb                            ",
"                            bbbbbbbb                            ",
"                          bbbbbbbbbbbb                          ",
"                          bbbbbbbbbbbb                          ",
"                          bbbbbbbbbbbb                          ",
"                          bbbbbbbbbbbb                          ",
"                          bbbbbbbbbbbb                          ",
"                          bbbbbbbbbbbb                          ",
"                          bbccbbbbccbb                          ",
"                          bbccbbbbccbb                          ",
"                          bbccbbbbccbb                          ",
"                          bbccbbbbccbb                          ",
"                        bbbbbbbbbbbbbbbb                        ",
"                        bbbbbbbbbbbbbbbb                        ",
"                        ddeebbeebbeebbdd                        ",
"                        ddeebbeebbeebbdd                        ",
"                          dddddddddddd                          ",
"                          dddddddddddd                          ",
"                                                                ",
"                                                                ",
"                                                                ",
"                                                                ",
"                                                                "};
