/* XPM */
static char * exit_xpm[] = {
"64 64 16 1",
" 	c #63C446",
".	c #231C13",
"+	c #45351E",
"@	c #513B1F",
"#	c #7E5C31",
"$	c #291E10",
"%	c #120F0A",
"&	c #7E6037",
"*	c #AB854F",
"=	c #D8B174",
"-	c #63C346",
";	c #62C245",
">	c #62C145",
",	c #62C345",
"'	c #62C346",
")	c #61C145",
"                                ..                              ",
"                              +@##+.                            ",
"                             .+@##+$.                           ",
"                            %.+@##+$.                           ",
"                          ..%.+@##+$.%.                         ",
"                         .&.%.+@##+$..&..                       ",
"                       ..&$.%.+@##+$..$&&.                      ",
"                      .&&@$.%.+@##+$..$@@&..                    ",
"                   .&&@@@@$.%.+@##+$..$$@@@@&..                 ",
"                 ..&@@@@@$..%.+@##+$...$$@@@@&&.                ",
"                .&&@@@@$$.&.%.+@##+$..&..$@@@@@&..              ",
"              ..&@@@@@$..&$.%.+@##+$..$&&.$$@@@@&&.             ",
"           .&&@@@@@$..&@@@$.%.+@##+$..$@@@&&.$$@@@@&&..         ",
"         ..&@@@@@$$.&&@@@@$.%.+@##+$..$$@@@@&..$@@@@@&&.        ",
"        .&&@@@@@$..&@@@@@$..%.+@##+$...$$@@@@&&.$$@@@@@&..      ",
"     .&&@@@@$$..&@@@@@$..&$.%.+@##+$..$&&.$$@@@@&&.$$@@@@@&.    ",
"     .&@@@@$..&&@@@@$$.&&@$.%.+@##+$..$@@&..$@@@@@&..$$@@@@.    ",
"     .@@@$$.&&@@@@@$..&@@@$.%.+@##+$..$@@@&&.$$@@@@&&..$@@@.    ",
"     .$@$..&@@@@@$$.&&@@@@$.%.+@##+$..$$@@@@&..$@@@@@&&.$$@.    ",
"      %.&@@@@@$$.&&@@@@$$.&.%.+@##+$..&..$@@@@@&..$@@@@@&&.     ",
"     .&&@@@@$$..&@@@@@$..&$.%.+@..+$..$&&.$$@@@@&&.$$@@@@@&.    ",
"     .&@@@@$..&&@@@@$$.&&@$.%...@@.$..$@@&..$@@@@@&..$$@@@@.    ",
"     .@@@$$.&&@@@@@$..&@@@$.%.@@**@...$@@@&&.$$@@@@&&..$@@@.    ",
"     .$$.&&@@@@@$..&@@@@@@$.%.*=***@..$$@@@@@&&.$$@@@@@&..$.    ",
"      %.&@@@@@$$.&&@@@@@@$.%%%*=@@*@%%.$$@@@@@@&..$@@@@@&&.     ",
"     .&&@@@@$$..&@@@@@@$$.%%%%@===@%%%%..$@@@@@@&&.$$@@@@@&.    ",
"     .@@@$$.&&@@@@@@$$.%%%....%%@@%%...%%%..$@@@@@@&&..$@@@.    ",
"     .$@$..&@@@@@@@$..%%%.......%%.%.....%%%.$$@@@@@@&&.$$@.    ",
"     .$$.&&@@@@@@$$.%%%.%..@.@.....%@@....%%%..$@@@@@@@&..$.    ",
"      %.&@@@@@@@$..%%%..%..@@@.....%@@@.@...%%%.$$@@@@@@&&.     ",
"     .&@@@@@$$..%%%...@@.@@#@@@@@.@.@@@@@@.@..%%%%.$$@@@@@@.    ",
"     .@@@@@$..%%%...@.@@.@@##@@@@@@.@@#@@@@@@.%.%%%..$$@@@@.    ",
"     .@@@$$.%%%%...@@.@@.@###@@@##@.@##@#@@@@@%...%%%..$@@@.    ",
"     .$@$..%%%....@@@@@@.@###@@###@.@#####@@@@%....%%%%.$$@.    ",
"     ...%%%$.%.@@@@@###@.@###@@###@.@#####@##@.@@@.%.%$%%%..    ",
"      %%%$$$.%@@@@@@###@.@###@@###@.@########@.@@@.%.%$$%%%     ",
"       %%$$&@.@@##@@###@.@###@@###@.@########@.@#@@%.%&$$%%     ",
"        %@@&@.@###@@###@.@###@@###@.@########@.@###.@%&@@%      ",
"        %@@&@.@###@@###@.@###@@###@.@########@.@###.@%&@@%      ",
"        %@@&@.@###@@###@.@###@@###@.@########@.@###.@%&@@%      ",
"        %#@&@.@###@@###@.@###@@###@.@########@.@###.@%&#@%      ",
"        %##&@.@##@%&&&&&&&&&&&&&&&%.@#%&&&&&&&&&&%#.@%&#@%      ",
"        %##&@.@#@%+...............+%@%+%........%+%%@%&#@%      ",
"        %##&@.@#@%.%%%%%%%%%%%%%%%.%@%.+%%%%%%%%+.%%@%&#@%      ",
"        %##&@%@#@%.%....%...%....%.%@%.+%.......+.%%@%&#@%      ",
"        %##&@%@#@%.%.@@@.@@@.@#@.%.%@%.+%++++++.+.%%@%&#@%      ",
"        %##&@%@#@%.%.@@@.@@@.@#@.%.%@%.+%%%%%%%.+.%%@%&#@%      ",
"        %##&@%@#@%.%.@#@.@#@.@#@.%.%@%.+%++++++.+.%%@%&#@%      ",
"        %##&@%@#@%.%.@#@.@#@.@#@.%.%@%.+%++++++.+.%%@%&#@%      ",
"        %##&@%@#@%.%.@#@.@#@.@#@.%.%@%.+%%%%%%%.+.%%@%&#@%      ",
"        %##&@%@#@%.%.@#@.@#@.@#@.%.%@%.+%++++++.+.%%@%&#@%      ",
"        %##&@%@#@%.%.@#@.@#@.@.@.%.%@%.+%%%%%%%%+.%%@%&#@%      ",
"        %##&@%@#@%.%.@#@.@#@..*..%.%@.%..........%.%@%&#@%      ",
"        %##&@%@#@%.%.@#@.@#@.@.@.%.%@@.%%%%%%%%%%.@%@%&#@%      ",
"        %##&@%@#@%.%.@#@.@#@.@@@.%.%@#@.......%..@#%@%&#@%      ",
"        %##&@%@#@%.%.@#@.@#@.@#@.%.%@##@@@@#@@%@@##%@%&#@%      ",
"        %##&@%@#@%.%.@#@.@#@.@#@.%.%@###@@###@%@###%@%&#@%      ",
"        %##&@%@#@%.%.@#@.@#@.@#@.%.%@###@@###@%@###%@%&#@%      ",
"        %##&@%@#@%.%.@#@.@#@.@#@.%.%@###@@###@%@###%@%&#@%      ",
"        %#@&@%@@+%.%.@@@.@@@.@@@.%.%@@@@@@@@@@%@@@@%@%&#@%      ",
"        %@@&% %%%%.% ... ... ... %.%%%%%%%%%%% %%%%-%%&@@%      ",
"        ;%%%    >%%%   - ,   '-  %%%)                -%%%-      ",
"         -       ,   --                                         ",
"                                                                "};
