/* XPM */
static char * player_exit_xpm[] = {
"64 64 20 1",
" 	c #63C446",
".	c #231C13",
"+	c #45351E",
"@	c #513B1F",
"#	c #7E5C31",
"$	c #291E10",
"%	c #120F0A",
"&	c #7E6037",
"*	c #262B44",
"=	c #181425",
"-	c #E4A672",
";	c #B86F50",
">	c #FFFFFF",
",	c #0095E9",
"'	c #63C346",
")	c #62C245",
"!	c #62C145",
"~	c #62C346",
"{	c #61C145",
"]	c #62C345",
"                                ..                              ",
"                              +@##+.                            ",
"                             .+@##+$.                           ",
"                            %.+@##+$.                           ",
"                          ..%.+@##+$.%.                         ",
"                         .&.%.+@##+$..&..                       ",
"                       ..&$.%.+@##+$..$&&.                      ",
"                      .&&@$.%.+@##+$..$@@&..                    ",
"                   .&&@@@@$.%.+@##+$..$$@@@@&..                 ",
"                 ..&@@@@@$..%.+@##+$...$$@@@@&&.                ",
"                .&&@@@@$$.&.%.+@##+$..&..$@@@@@&..              ",
"              ..&@@@@@$..&$.%.+@##+$..$&&.$$@@@@&&.             ",
"           .&&@@@@@$..&@@@$.%.+@##+$..$@@@&&.$$@@@@&&..         ",
"         ..&@@@@@$$.&&@@@@$.%.+@##+$..$$@@@@&..$@@@@@&&.        ",
"        .&&@@@@@$..&@@@@@$..%.+@##+$...$$@@@@&&.$$@@@@@&..      ",
"     .&&@@@@$$..&@@@@@$..&$.%.+@##+$..$&&.$$@@@@&&.$$@@@@@&.    ",
"     .&@@@@$..&&@@@@$************************@@@@@&..$$@@@@.    ",
"     .@@@$$.&&@@@@@$.************************$$@@@@&&..$@@@.    ",
"     .$@$..&@@@@@$$.&************************..$@@@@@&&.$$@.    ",
"      %.&@@@@@$$.&&@@************************@@&..$@@@@@&&.     ",
"     .&&@@@@$$..&********************************&.$$@@@@@&.    ",
"     .&@@@@$..&&@********************************@&..$$@@@@.    ",
"     .@@@$$.&&@@@********************************@@&&..$@@@.    ",
"     .$$.&&@@@@@$********************************$@@@@@&..$.    ",
"      %.&@@@@@$$.====************************====.$@@@@@&&.     ",
"     .&&@@@@$$..&====************************====&.$$@@@@@&.    ",
"     .@@@$$.&&@@@====************************====@@&&..$@@@.    ",
"     .$@$..&@@@@@====************************====@@@@&&.$$@.    ",
"     .$$.&&@@@@@@========****************========@@@@@@&..$.    ",
"      %.&@@@@@@@$========****************========$@@@@@@&&.     ",
"     .&@@@@@$$..%========****************========%.$$@@@@@@.    ",
"     .@@@@@$..%%%========****************========%%..$$@@@@.    ",
"     .@@@$$.%%%%.====----================----====.%%%..$@@@.    ",
"     .$@$..%%%...====----================----====..%%%%.$$@.    ",
"     ...%%%$.%.@@====----================----====@.%.%$%%%..    ",
"      %%%$$$.%@@@====----================----====@.%.%$$%%%     ",
"       %%$$&@.@@#====------------------------====@@%.%&$$%%     ",
"        %@@&@.@##====------------------------====##.@%&@@%      ",
"        %@@&@.@##====------------------------====##.@%&@@%      ",
"        %@@&@.@##====------------------------====##.@%&@@%      ",
"        %#@&@.@##====----====--------====----====##.@%&#@%      ",
"        %##&@.@##====----====--------====----====%#.@%&#@%      ",
"        %##&@.@#@====----====--------====----====+%%@%&#@%      ",
"        %##&@.@#@====----====--------====----====.%%@%&#@%      ",
"        %##&@%@#@--------------------------------.%%@%&#@%      ",
"        %##&@%@#@--------------------------------.%%@%&#@%      ",
"        %##&@%@#@--------------------------------.%%@%&#@%      ",
"        %##&@%@#@--------------------------------.%%@%&#@%      ",
"        %##&@%@#@----;;;;----------------;;;;----.%%@%&#@%      ",
"        %##&@%@#@----;;;;----------------;;;;----.%%@%&#@%      ",
"        %##&@%@#@----;;;;----------------;;;;----.%%@%&#@%      ",
"        %##&@%@#@----;;;;----------------;;;;----.%%@%&#@%      ",
"        %##&@%@#@----;;;;>>>>>>>>>>>>>>>>;;;;----%.%@%&#@%      ",
"        %##&@%@#@----;;;;>>>>>>>>>>>>>>>>;;;;----.@%@%&#@%      ",
"        %##&@%@#@----;;;;>>>>>>>>>>>>>>>>;;;;----@#%@%&#@%      ",
"        %##&@%@#@----;;;;>>>>>>>>>>>>>>>>;;;;----##%@%&#@%      ",
"        %##&@%@#@%.%.@#@.,,,,,,,,,,,,,,,,@###@%@###%@%&#@%      ",
"        %##&@%@#@%.%.@#@.,,,,,,,,,,,,,,,,@###@%@###%@%&#@%      ",
"        %##&@%@#@%.%.@#@.,,,,,,,,,,,,,,,,@###@%@###%@%&#@%      ",
"        %#@&@%@@+%.%.@@@.,,,,,,,,,,,,,,,,@@@@@%@@@@%@%&#@%      ",
"        %@@&% %%%%.% ... ====... %.%%====%%%%% %%%%'%%&@@%      ",
"        )%%%    !%%%   ' ====~'  %%%{====            '%%%'      ",
"         '       ]   ''  ====        ====                       ",
"                         ====        ====                       "};
