/* XPM */
static char * player_d_xpm[] = {
"64 64 7 1",
" 	c #63C446",
".	c #262B44",
"+	c #181425",
"@	c #E4A672",
"#	c #B86F50",
"$	c #FFFFFF",
"%	c #0095E9",
"                                                                ",
"                                                                ",
"                                                                ",
"                                                                ",
"                    ........................                    ",
"                    ........................                    ",
"                    ........................                    ",
"                    ........................                    ",
"                ................................                ",
"                ................................                ",
"                ................................                ",
"                ................................                ",
"                ++++........................++++                ",
"                ++++........................++++                ",
"                ++++........................++++                ",
"                ++++........................++++                ",
"                ++++++++................++++++++                ",
"                ++++++++................++++++++                ",
"                ++++++++................++++++++                ",
"                ++++++++................++++++++                ",
"                ++++@@@@++++++++++++++++@@@@++++                ",
"                ++++@@@@++++++++++++++++@@@@++++                ",
"                ++++@@@@++++++++++++++++@@@@++++                ",
"                ++++@@@@++++++++++++++++@@@@++++                ",
"                ++++@@@@@@@@@@@@@@@@@@@@@@@@++++                ",
"                ++++@@@@@@@@@@@@@@@@@@@@@@@@++++                ",
"                ++++@@@@@@@@@@@@@@@@@@@@@@@@++++                ",
"                ++++@@@@@@@@@@@@@@@@@@@@@@@@++++                ",
"                ++++@@@@++++@@@@@@@@++++@@@@++++                ",
"                ++++@@@@++++@@@@@@@@++++@@@@++++                ",
"                ++++@@@@++++@@@@@@@@++++@@@@++++                ",
"                ++++@@@@++++@@@@@@@@++++@@@@++++                ",
"                @@@@@@@@@@@@@@@@@@@@@@@@@@@@@@@@                ",
"                @@@@@@@@@@@@@@@@@@@@@@@@@@@@@@@@                ",
"                @@@@@@@@@@@@@@@@@@@@@@@@@@@@@@@@                ",
"                @@@@@@@@@@@@@@@@@@@@@@@@@@@@@@@@                ",
"                @@@@####@@@@@@@@@@@@@@@@####@@@@                ",
"                @@@@####@@@@@@@@@@@@@@@@####@@@@                ",
"                @@@@####@@@@@@@@@@@@@@@@####@@@@                ",
"                @@@@####@@@@@@@@@@@@@@@@####@@@@                ",
"                @@@@####$$$$$$$$$$$$$$$$####@@@@                ",
"                @@@@####$$$$$$$$$$$$$$$$####@@@@                ",
"                @@@@####$$$$$$$$$$$$$$$$####@@@@                ",
"                @@@@####$$$$$$$$$$$$$$$$####@@@@                ",
"                    ....%%%%%%%%%%%%%%%%....                    ",
"                    ....%%%%%%%%%%%%%%%%....                    ",
"                    ....%%%%%%%%%%%%%%%%....                    ",
"                    ....%%%%%%%%%%%%%%%%....                    ",
"                ........++++........++++........                ",
"                ........++++........++++........                ",
"                ........++++........++++........                ",
"                ........++++........++++........                ",
"                ................................                ",
"                ................................                ",
"                ................................                ",
"                ................................                ",
"                    ........................                    ",
"                    ........................                    ",
"                    ........................                    ",
"                    ........................                    ",
"                                                                ",
"                                                                ",
"                                                                ",
"                                                                "};
