/* XPM */
static char *_876f73ed9364874ec9668999b4f2d15AQXvizUxvldKfZY3[] = {
/* columns rows colors chars-per-pixel */
"64 64 199 2 ",
"   c #63C446",
".  c #030101",
"X  c #0B0303",
"o  c #0A0A0A",
"O  c #02070F",
"+  c #130303",
"@  c #1B0202",
"#  c #140D0D",
"$  c #180C0C",
"%  c #0B0E1A",
"&  c #1F0A17",
"*  c #151414",
"=  c #1E1314",
"-  c #1C1B1C",
";  c #111318",
":  c #240202",
">  c #2D0203",
",  c #2C0708",
"<  c #240D0E",
"1  c #2B0909",
"2  c #340203",
"3  c #3C0303",
"4  c #3C050A",
"5  c #340D0D",
"6  c #3B0C0C",
"7  c #250D1D",
"8  c #380F11",
"9  c #370A18",
"0  c #221313",
"q  c #281313",
"w  c #211C1C",
"e  c #2A1C1C",
"r  c #3E1313",
"t  c #331C1C",
"y  c #3D1B1A",
"u  c #3A1416",
"i  c #160E22",
"p  c #05132A",
"a  c #0D1A2F",
"s  c #111623",
"d  c #1C1E23",
"f  c #181028",
"g  c #05183C",
"h  c #021638",
"j  c #1B193C",
"k  c #370F22",
"l  c #22122A",
"z  c #2E1129",
"x  c #3B1A26",
"c  c #331939",
"v  c #242424",
"b  c #2C2424",
"n  c #2B2B2B",
"m  c #272729",
"M  c #3C2121",
"N  c #322F2F",
"B  c #3A2C2C",
"V  c #232E3D",
"C  c #353535",
"Z  c #3C3535",
"A  c #3D3C3C",
"S  c #420203",
"D  c #4B0303",
"F  c #4A070B",
"G  c #450F0F",
"H  c #4D0C0C",
"J  c #410509",
"K  c #530304",
"L  c #5B0303",
"P  c #5E0708",
"I  c #5C0C0C",
"U  c #56090C",
"Y  c #450A17",
"T  c #480F10",
"R  c #590F10",
"E  c #431111",
"W  c #441A1A",
"Q  c #5C1112",
"!  c #561212",
"~  c #630304",
"^  c #6C0304",
"/  c #6A0608",
"(  c #650909",
")  c #6D0C0C",
"_  c #640509",
"`  c #740304",
"'  c #7C0304",
"]  c #740C0D",
"[  c #7C0B0B",
"{  c #70050A",
"}  c #7D0913",
"|  c #6D1818",
" . c #6D1313",
".. c #751D1D",
"X. c #791515",
"o. c #421424",
"O. c #4B2A2A",
"+. c #5B2424",
"@. c #542728",
"#. c #483636",
"$. c #513737",
"%. c #612424",
"&. c #031C45",
"*. c #091C45",
"=. c #091E4B",
"-. c #181E4B",
";. c #06224F",
":. c #192448",
">. c #052051",
",. c #092254",
"<. c #05255C",
"1. c #0C245A",
"2. c #132352",
"3. c #16325D",
"4. c #052762",
"5. c #042C6D",
"6. c #132762",
"7. c #143262",
"8. c #042E73",
"9. c #082F76",
"0. c #04317B",
"q. c #0B357A",
"w. c #3D4046",
"e. c #3A4556",
"r. c #424141",
"t. c #4D4343",
"y. c #4B4B4B",
"u. c #534E4E",
"i. c #564646",
"p. c gray33",
"a. c #5D5D5D",
"s. c #644A4A",
"d. c #615858",
"f. c #4C576B",
"g. c #5D5E60",
"h. c #596575",
"j. c #6C6262",
"k. c #6D6D6D",
"l. c #706868",
"z. c #766E70",
"x. c #747474",
"c. c gray48",
"v. c #840304",
"b. c #8B0304",
"n. c #8F0608",
"m. c #870B0C",
"M. c #930303",
"N. c #9C0304",
"B. c #960B0C",
"V. c #9E0D0D",
"C. c #93100F",
"Z. c #8C1111",
"A. c #951111",
"S. c #9A1213",
"D. c #9B1B1B",
"F. c #A40304",
"G. c #AC0304",
"H. c #A40808",
"J. c #B30304",
"K. c #BC0203",
"L. c #BD0A0B",
"P. c #B70C0D",
"I. c #A21213",
"U. c #AF1413",
"Y. c #A91D1D",
"T. c #B41213",
"R. c #BD1717",
"E. c #8B2020",
"W. c #9F2323",
"Q. c #A52424",
"!. c #C10203",
"~. c #C00203",
"^. c #C20304",
"/. c #C10304",
"(. c #C50909",
"). c #C71A1A",
"_. c #D51C1B",
"`. c #043481",
"'. c #02368B",
"]. c #02388F",
"[. c #0E3E88",
"{. c #0C4196",
"}. c gray51",
"|. c gray55",
" X c gray61",
".X c #AEAEAE",
"XX c #A4A4A4",
"oX c #B1B1B1",
"OX c gray73",
"+X c #C6C6C6",
"@X c #CBCBCB",
"#X c LightGray",
"$X c gray86",
"%X c #E6E6E6",
"&X c #EBEBEB",
"*X c #F5F5F5",
"=X c #FFFFFF",
"-X c #FDFDFD",
";X c #FDFDFD",
/* pixels */
"                                                                                                                                ",
"                                                                                                                                ",
"                                                                                                                                ",
"                                                                                                                                ",
"                                                                                                                                ",
"                                                                                                                                ",
"                                                                                                                                ",
"                                                                                                                                ",
"                                                            s.O.8 5 y $.s.                                                      ",
"                                                    0 %.] b.N.G.J.J.' I A.E.+.m                                                 ",
"                                                w | T.K.K.!.!.!.J.` F.` v.V.).E.0                                               ",
"                                            t.5 S.(.!.!.K.G.F.v.v.K./.G.M.F.b.I.D.1 N                                           ",
"                                          Z ! P./.!.J.b.v.N.F.K.!.!./.!.v.K.!.J.G.U...t                                         ",
"                                        a.R H.` ` ^ ' G.K.K.!.!.!.!.!.!.N.J.!.!.!./.).Q.0                                       ",
"                                        6 L./.' v.F.K.!.!.!.!.!.!.!.!.!.G.F.!.!.!.!./._.Q.b                                     ",
"                                      y H.!.!.` K.F.' J.!.!.!.!.!.!.!.!.F.v.K.!.!.!.!.^._...                                    ",
"                                      ] K.!.K.^ !.!.J.` J.!.!.!.!.!.!.M.` ` M.!.!.!.!.!./.Y.B                                   ",
"                                      M.!.!.F.' M.K.!.J.v.G.!.K.G.F.' N.!.b.M.b.G.K.!.!.!.V.r                                   ",
"                                    @.G.!.!.v.S X ^ K.!.J.~ ^ b.N.F.K.!.!.b.K.J.N.b.v.b.M.[ X.j.                                ",
"                                    2 K.!.!.^ X o . 3 J.K.` ` J.K.!.!.!.!.b.K.!.!.K.K.J.H.^ Y.b                                 ",
"                                    D K.!.K.S . x.y.. : ^ J.G.b.K.!.!.!.!.M.G.!.!.!.!.!.' ` ).+                                 ",
"                                    ~ J.!.G.2 .  X%Xx.. @ b.!.M.M.!.!.!.!.F.N.!.!.!.!.J.` N.R.1                                 ",
"                                    ^ J.!.F.: . XX=X*Xc.. X F.K.^ K.!.!.!.M.v.!.!.!.!.v.J.G.U.G                                 ",
"                                  a.` G.!.v.2 . oX=X=X&Xp.. 2 J.J.~ b.v.v.b.~ M.G.J.G.v.K.M.] G                                 ",
"                                  r.L b.F.M.2 . OX*X=X=X$Xv X ' ' M.G.!.!.J.b.J.F.F.` M.J.> I :                                 ",
"                                  C ^ ` K N.> . oX*X=X=X=X X. @ N.J.N.!.!.G.M.!.!.K.~ N.3 . [ @                                 ",
"                                  C ~ M.^ b.: .  X&X=X=X=X=Xn . M.!.b.F.G.M.b.K.K.` F.S X - ( $                                 ",
"                                  k.D M.v.M.S . k.$X=X=X=X=X X. 3 !.b.^ F.v.N.b.' F.L X c.Z 3 d.                                ",
"                                    > M.M.` ^ . A +X*X=X=X=X#X- . G.v.N.N.b.K.F.` K . k.&X$ @                                   ",
"                                    < v.M.^ F.@ - .X#X*X=X=X*Xp.. D M.G.K ~ ^ v.D . y.%X XX B                                   ",
"                                    t.~ M.' N.^ X c.+X#X*X=X=X@X- X ` ' ~ D > 2 X x.&X%Xn X                                     ",
"                                      E b.v.v.K.2 v oX+X@X%X=X=X.X. v.^ ~ K + o |.*X*Xc.X q                                     ",
"                                  s.8 R I ] ( b.b.@ * }..XoX.X}.* @ ` F.N.F.> *  X+X Xw K 0                                     ",
"                                M S.m.H.b.(.B.] I.F : X - n - X > K v.b.' M.D @ o m - K ' *                                     ",
"                                y M.^ ` N.J.M.M.J.V.H ` L K D ' ~ J.K.G.^ J.M.b.K @ ' M.@                                       ",
"                                  o # 2 ~ ` ` / ] v.D.] K.J.^ ' G.G.K.v.J.J.K.v.v.F.M.2 A                                       ",
"                                    #.H v.b.' H.B.~ v.X.` ' b.N.F.F.b.L b.M.b.L v.L 4 6 t v m < = N                             ",
"                                    T L.' ^ ` b.v.` ` C.K ` M.M.M.N.' b.M.M.v.4 i ` ` ^ I Q I ( [ I Z                           ",
"                                  - A.b.N.S M.J.M.' J.b.^ ' L D K L K F 9 l *.5.-.~ ^ b.^ L ^ ` ^ P Z                           ",
"                                  + v.' > e ^ M.L ` b.v.~ F.~ ` D ^ X.2.5.8.0.`.:.v.N.' K ^ L ( I $ a.                          ",
"                                  m D > r.  q 9 l ^ ' ^ K ^ D 2 3 ) o.&.&.>.<.5.<.4 D K ^ K D ^ P  .E m                         ",
"                                              ;.4.Y v.L F.' 3 : @ , Z   y.n o o s = E 3 S v.b.D 3 D ' G                         ",
"                                              p 5.,.J ~ ` ` ~ ^ K 0                     B 3 ` ` 2 e > <                         ",
"                                          p.s g g f ' ` F.D N.~ ~ A                       u.> ' K                               ",
"                                        w.7.{.].'.=.4 ~ F.~ b._ & V e.f.h.                    q u                               ",
"                                        3.{.].].].0.*.7 k z c 6.0.`.`.`.q.3.d                                                   ",
"                                      d [.].].].].0.5.=.8.`.'.].].].].].].{.3.n                                                 ",
"                                      +.x 9.'.].].0.8.&.5.8.8.0.`.'.].].].].{.:.                                                ",
"                                      Q ` } c ,.4.>.j % a p h >.5.8.`.].].].`.c t                                               ",
"                                    i.m.D ` ^ / { K D #     g.- O &.8.0.'.1.Y n.H u.                                            ",
"                                    O.] G.J.v.J.' ~ ^ -           ; g j 9 v.b.~ T.1                                             ",
"                                    W [ b.b.F.J.v.~ :               * 2 ~ L G.G.b.Z.W                                           ",
"                                    O.N.K.` L ~ K L e               C X ` ^ F.v.L G.I.B                                         ",
"                                      F N.b.b.v.~ 6                   n , L 3 F.J.^ n.) j.                                      ",
"                                      #.K K L S <                         u > K L D S +.                                        ",
"                                          t.t.z.                              l.d.j.                                            ",
"                                                                                                                                ",
"                                                                                                                                ",
"                                                                                                                                ",
"                                                                                                                                ",
"                                                                                                                                ",
"                                                                                                                                ",
"                                                                                                                                ",
"                                                                                                                                "
};
