/* XPM */
static char *_a683693a1214d54a9ae98a2953ea5ed54ww1icEigFP5w0K[] = {
/* columns rows colors chars-per-pixel */
"64 64 194 2 ",
"   c #63C446",
".  c #644A4A",
"X  c #4B2A2A",
"o  c #380F11",
"O  c #340D0D",
"+  c #3D1B1A",
"@  c #513737",
"#  c #221313",
"$  c #612424",
"%  c #740C0D",
"&  c #8B0304",
"*  c #9C0304",
"=  c #AC0304",
"-  c #B30304",
";  c #7C0304",
":  c #5C0C0C",
">  c #951111",
",  c #8B2020",
"<  c #5B2424",
"1  c #272729",
"2  c #211C1C",
"3  c #6D1818",
"4  c #B41213",
"5  c #BC0203",
"6  c #C10203",
"7  c #740304",
"8  c #A40304",
"9  c #840304",
"0  c #9E0D0D",
"q  c #C71A1A",
"w  c #4D4343",
"e  c #9A1213",
"r  c #C50909",
"t  c #C10304",
"y  c #930303",
"u  c #A21213",
"i  c #9B1B1B",
"p  c #2B0909",
"a  c #322F2F",
"s  c #3C3535",
"d  c #561212",
"f  c #B70C0D",
"g  c #AF1413",
"h  c #751D1D",
"j  c #331C1C",
"k  c #5D5D5D",
"l  c #590F10",
"z  c #A40808",
"x  c #6C0304",
"c  c #A52424",
"v  c #3B0C0C",
"b  c #BD0A0B",
"n  c #D51C1B",
"m  c #2C2424",
"M  c #C20304",
"N  c #A91D1D",
"B  c #3A2C2C",
"V  c #3E1313",
"C  c #542728",
"Z  c #420203",
"A  c #0B0303",
"S  c #630304",
"D  c #7C0B0B",
"F  c #791515",
"G  c #6C6262",
"H  c #340203",
"J  c gray4",
"K  c #030101",
"L  c #3C0303",
"P  c #4B0303",
"I  c #747474",
"U  c #4B4B4B",
"Y  c #240202",
"T  c #130303",
"R  c gray61",
"E  c #E6E6E6",
"W  c #1B0202",
"Q  c #BD1717",
"!  c #A4A4A4",
"~  c white",
"^  c gray96",
"/  c gray48",
"(  c #450F0F",
")  c #B1B1B1",
"_  c gray92",
"`  c gray33",
"'  c #424141",
"]  c #5B0303",
"[  c gray73",
"{  c gray86",
"}  c gray14",
"|  c #2D0203",
" . c #353535",
".. c #530304",
"X. c gray17",
"o. c #1C1B1C",
"O. c #650909",
"+. c #180C0C",
"@. c #6D6D6D",
"#. c #615858",
"$. c #3D3C3C",
"%. c #C6C6C6",
"&. c LightGray",
"*. c #240D0E",
"=. c #AEAEAE",
"-. c #CBCBCB",
";. c #431111",
":. c gray55",
">. c #281313",
",. c #151414",
"<. c gray51",
"1. c #3C2121",
"2. c #870B0C",
"3. c #960B0C",
"4. c #4A070B",
"5. c #4D0C0C",
"6. c #140D0D",
"7. c #6A0608",
"8. c #483636",
"9. c #3C050A",
"0. c #1E1314",
"q. c #480F10",
"w. c #93100F",
"e. c #160E22",
"r. c #5C1112",
"t. c #370A18",
"y. c #22122A",
"u. c #091C45",
"i. c #042C6D",
"p. c #181E4B",
"a. c #5E0708",
"s. c #2A1C1C",
"d. c #132352",
"f. c #042E73",
"g. c #04317B",
"h. c #043481",
"j. c #192448",
"k. c #6D0C0C",
"l. c #421424",
"z. c #031C45",
"x. c #052051",
"c. c #05255C",
"v. c #6D1313",
"b. c #06224F",
"n. c #052762",
"m. c #450A17",
"M. c #2C0708",
"N. c #111623",
"B. c #05132A",
"V. c #092254",
"C. c #410509",
"Z. c #05183C",
"A. c #181028",
"S. c #534E4E",
"D. c #3D4046",
"F. c #143262",
"G. c #0C4196",
"H. c #02388F",
"J. c #02368B",
"K. c #091E4B",
"L. c #640509",
"P. c #1F0A17",
"I. c #232E3D",
"U. c #3A4556",
"Y. c #4C576B",
"T. c #596575",
"R. c #3A1416",
"E. c #16325D",
"W. c #250D1D",
"Q. c #370F22",
"!. c #2E1129",
"~. c #331939",
"^. c #132762",
"/. c #0B357A",
"(. c #1C1E23",
"). c #0E3E88",
"_. c #3B1A26",
"`. c #082F76",
"'. c #7D0913",
"]. c #1B193C",
"[. c #0B0E1A",
"{. c #0D1A2F",
"}. c #021638",
"|. c #564646",
" X c #70050A",
".X c #5D5E60",
"XX c #02070F",
"oX c #0C245A",
"OX c #8F0608",
"+X c #111318",
"@X c #441A1A",
"#X c #8C1111",
"$X c #766E70",
"%X c #706868",
/* pixels */
"                                                                                                                                ",
"                                                                                                                                ",
"                                                                                                                                ",
"                                                                                                                                ",
"                                                                                                                                ",
"                                                                                                                                ",
"                                                                                                                                ",
"                                                                                                                                ",
"                                                      . @ + O o X .                                                             ",
"                                                1 < , > : ; - - = * & % $ #                                                     ",
"                                              # , q 0 9 7 8 7 - 6 6 6 5 5 4 3 2                                                 ",
"                                          a p i u & 8 y = t 5 9 9 8 = 5 6 6 r e O w                                             ",
"                                        j h g = - 6 5 9 6 t 6 6 5 8 * 9 & - 6 t f d s                                           ",
"                                      # c q t 6 6 6 - * 6 6 6 6 6 6 5 5 = ; x 7 7 z l k                                         ",
"                                    m c n t 6 6 6 6 8 = 6 6 6 6 6 6 6 6 6 5 8 9 ; t b v                                         ",
"                                    h n M 6 6 6 6 5 9 8 6 6 6 6 6 6 6 6 - ; 8 5 7 6 6 z +                                       ",
"                                  B N t 6 6 6 6 6 y 7 7 y 6 6 6 6 6 6 - 7 - 6 6 x 5 6 5 %                                       ",
"                                  V 0 6 6 6 5 = & y & 6 * ; 8 = 5 6 = 9 - 6 5 y ; 8 6 6 y                                       ",
"                                G F D y & 9 & * - 5 & 6 6 5 8 * & x S - 6 5 x A Z 9 6 6 = C                                     ",
"                                m N x z - 5 5 6 6 5 & 6 6 6 6 5 - 7 7 5 - L K J A x 6 6 5 H                                     ",
"                                T q 7 ; 6 6 6 6 6 = y 6 6 6 6 5 & = - x Y K U I K Z 5 6 5 P                                     ",
"                                p Q * 7 - 6 6 6 6 * 8 6 6 6 6 y y 6 & W K I E R K H = 6 - S                                     ",
"                                ( g = - 9 6 6 6 6 9 y 6 6 6 5 x 5 8 A K / ^ ~ ! K Y 8 6 - x                                     ",
"                                ( % y 5 9 = - = y S & 9 9 & S - - H K ` _ ~ ~ ) K H 9 6 = 7 k                                   ",
"                                Y : | - y 7 8 8 - & - 6 6 = y ; ; A } { ~ ~ ^ [ K H y 8 & ] '                                   ",
"                                W D K L * S 5 6 6 y = 6 6 * - * W K R ~ ~ ~ ^ ) K | * ..7 x  .                                  ",
"                                +.O.o.A Z 8 7 5 5 & y = 8 & 6 y K X.~ ~ ~ ~ _ R K Y & x y S  .                                  ",
"                                #.L s / A ] 8 ; & * 9 8 x & 6 L K R ~ ~ ~ ~ { @.K Z y 9 y P @.                                  ",
"                                  W +._ @.K ..7 8 5 & * * 9 = K o.&.~ ~ ~ ^ %.$.K x 7 y y |                                     ",
"                                  B A R E U K P 9 x S ..= y P K ` ^ ~ ~ ^ &.=.o.W 8 x y 9 *.                                    ",
"                                    A X.E _ I A H | P S ; 7 A o.-.~ ~ ^ &.%./ A x * ; y S w                                     ",
"                                    >.A / ^ ^ :.J T ..S x 9 K =.~ ~ E -.%.) } H 5 9 9 & ;.                                      ",
"                                    # ..2 R %.R ,.| 8 * 8 7 W ,.<.=.) =.<.,.W & & O.% : l o .                                   ",
"                                    ,.; ..o.1 J W P y ; & 9 ..| A o.X.o.A Y 4.u % 3.r & z 2.e 1.                                ",
"                                      W y ; W ..& y - x = 5 - S ; P ..] 7 5.0 - y y - * 7 x y +                                 ",
"                                      $.H y 8 9 9 5 - - 9 5 = = ; x - 5 % i 9 % 7.7 7 S H 6.J                                   ",
"                            a 0.*.1 } j v 9.] 9 ] & y & ] & 8 8 * & ; 7 F 9 S 3.z ; & 9 5.8.                                    ",
"                          s : D O.: r.: x 7 7 e.9.9 y y & ; * y y y 7 ..w.7 7 9 & 7 x ; b q.                                    ",
"                          s a.x 7 x ] x & x S p.i.u.y.t.4...] ..P ] ; x & - ; y - y Z * & > o.                                  ",
"                          k +.: O.] x ..; * 9 j.h.g.f.i.d.F x P 7 S 8 S 9 & 7 ] y x s.| ; 9 T                                   ",
"                        1 ;.v.a.x P ..x ..P 9.c.i.c.x.z.z.l.k.L H P x ..x ; x y.t.>.  ' | P 1                                   ",
"                        ( ; P L P & 9 Z L ;.0.N.J J X.U   s M.W Y L ; 8 ] 9 m.n.b.                                              ",
"                        *.| s.H 7 7 L B                     # ..x S 7 7 S C.V.i.B.                                              ",
"                              ..; | S.                      $.S S * P 8 7 ; A.Z.Z.N.`                                           ",
"                              R.>.                    T.Y.U.I.P.L.& S 8 S 9.K.J.H.G.F.D.                                        ",
"                                                  (.E./.h.h.h.g.^.~.!.Q.W.u.g.H.H.H.G.E.                                        ",
"                                                X.E.G.H.H.H.H.H.H.J.h.f.K.i.g.H.H.H.H.).(.                                      ",
"                                                j.G.H.H.H.H.J.h.g.f.f.i.z.f.g.H.H.J.`._.<                                       ",
"                                              j ~.h.H.H.H.h.f.i.x.}.B.{.[.].x.n.V.~.'.7 r.                                      ",
"                                            S.5.OXm.oXJ.g.f.z.XXo..X    6.P .. X7.x 7 P 2.|.                                    ",
"                                            p 4 S & 9 t.].Z.+X          o.x S ; - 9 - = % X                                     ",
"                                          @X#X& = = ] S H ,.              Y S 9 - 8 & & D @X                                    ",
"                                        B u = ] 9 8 x 7 A  .              s.] ..S ] 7 5 * X                                     ",
"                                      G k.OXx - 8 L ] M.X.                  v S 9 & & * 4.                                      ",
"                                        < Z P ] ..| R.                        *.Z ] ....8.                                      ",
"                                            G #.%X                              $Xw w                                           ",
"                                                                                                                                ",
"                                                                                                                                ",
"                                                                                                                                ",
"                                                                                                                                ",
"                                                                                                                                ",
"                                                                                                                                ",
"                                                                                                                                ",
"                                                                                                                                "
};
