/* XPM */
static char * tree_xpm[] = {
"64 64 13 1",
" 	c #63C446",
".	c #002F00",
"+	c #3F9826",
"@	c #90D57A",
"#	c #1A6B05",
"$	c #0D4D03",
"%	c #001705",
"&	c #0F0D09",
"*	c #17130D",
"=	c #2D2314",
"-	c #3C301E",
";	c #4B3C27",
">	c #7E5C31",
"                      ...     ..                                ",
"                   ...++ ..  .  ...                             ",
"                  .++      ..      .                            ",
"                 .+     @           +.+ ++..                    ",
"            ..  .+   @  @@ @ @   @  ++     +.                   ",
"           .##..++      @@  @ @@ @@   @     +.                  ",
"           .###++        @      @@ @         +.                 ",
"          .$++#++               @           +++.                ",
"        ..##++++ +         @     @         +  +#.               ",
"       .$##++++++++                       ++ ++#.               ",
"       .$$#++++ ++    +               +++ ++++#$.               ",
"       %.$$#++++ +  ++++            +++++++++##$$.              ",
"        %.$##+++ ++ ++++ +   ++     +++##+++++##$$..            ",
"       %..$###++++++##+++++ +++  ++ +++#++++++####$$$.          ",
"      %.$$####+++++#+##+++++++++++++++++++#++++#$$$$$$.         ",
"     %$$$######++++++##+++++  +++#+++++++###+#####$$$$%         ",
"    %$$$$#####+####++#+++++  + +#++++++#########$$$..%          ",
"    %$$$$$$########+++++++++ ++++++++++##########$$.%           ",
"    %$$$$$$$######+++++++++++++++++#++++$$####$##$$..%          ",
"     %$$$$$#$######++##++##++++#####+#+#$##$##$#$$$$..%         ",
"     %$$$$$$#################+++###########$$$$$$$##$$.%        ",
"      %.$$$$$##$$########$##+++###########$$##$$$##$$$.%        ",
"     %..$$$$#$$$#######$$#$######$$$###$####$$$#$$$$..%         ",
"    %...$$$$$$$$$#################$#$#$$##$$$$$$$$$$.%          ",
"    %..$$#$$$$$$$######$###############$$#$$$$$$$$$...%         ",
"    %...$$#$$$$$$$#$##$$$#####$$$#####$$$$$$$$$$$.....%         ",
"    %....$#$$$$$$$$$$$$$$######$$$$###$$$$$$$$$$$$.....%        ",
"     %...$$$$$$$$$#$$$$$######$$$$$$##$$$$$$##$$$$$....%        ",
"     %...$$$$$$$###$#$$$$#$$$#$$$$$$$$$$$$$###$$$$.....%        ",
"      %...$$$$$$$###$$$$$$$$$$$$$$$$$$$$$$$#$$$$$$$...%         ",
"      %..$$$$$$$$#$$$$$$$$$$$$$$$$$$$$$$$$$$$.$$$....%          ",
"     %..$$$$$$$$$$$$$$$$$$$$$$$$$#$$$$$$$$$$$........%          ",
"    %............$$$$$$$$$$.$$$$$##$$$$$$$......$...%           ",
"     %..........$$.$$$$$$$$..$.$$$#$$$$$$........$..%           ",
"      %............$$$$$$$......$$$$$$$$$$...........%          ",
"       %....$$$....$$$$$$$......$$$$$$$$$$$..........%          ",
"       %...$..........$$$........$$$...$$$...........%          ",
"       %.........................$.......$...........%          ",
"        %.........$..........................$$.....%           ",
"         %.......$$$...................$......$$.%%%            ",
"          %.....$.$$.......$$..........$$.......%               ",
"          %...............$$...%........$$.....%                ",
"                %%.......%...%&&&%&%%%......%%                  ",
"                  %.....%&%..%&**&*&& %....%                    ",
"                   %%%%%&*&%%&******&  %%%%                     ",
"                       &*=*&&**==*=*&                           ",
"                       &===**=======&                           ",
"                       &-====--====-&                           ",
"                      &;-===-;;-===-;&                          ",
"                      &;-===-;;-===-;&                          ",
"                  >>>>;;-===-;;-===-;;>>>>>                     ",
"         >>>>>>>>>>--====**=-;;-=**====-->>>>>>>>>              ",
"        >>>>>>>>>>>====****==--==****====>>>>>>>>>>>            ",
"      >>>>>>>>>>>>>>>>>>>>**=--=**>>>>>>>>>>>>>>>>>>            ",
"       >>>>>>>>>>>>>>>>>>>>*====*>>>>>>>>>>>>>>>>>>>>           ",
"      >>>>>>>>>>>>>>>>>>>>>>*==*>>>>>>>>>>>>>>>>>>>>>           ",
"     >>>>>>>>>>>>>>>>>>>>>>>>>>>>>>>>>>>>>>>>>>>>>>>>           ",
"       >>>>>>>>>>>>>>>>>>>>>>>>>>>>>>>>>>>>>>>>>>>>>>>          ",
"      >>>>>>>>>>>>>>>>>>>>>>>>>>>>>>>>>>>>>>>>>>>>>>>           ",
"       >>>>>>>>>>>>>>>>>>>>>>>>>>>>>>>>>>>>>>>>>>>>>            ",
"         >>>>>>>>>>>>>>>>>>>>>>>>>>>>>>>>>>>>>>>>>>             ",
"            >>>>>>>>>>>>>>>>>>>>>>>>>>>>>>>>>>                  ",
"                  >>>>>>>>>>>>>>>>>>>>>>>>>                     ",
"                   >>>>>>    >>>>                               "};
